<?xml version="1.0" encoding="UTF-8"?>
<svg width="1229px" height="1229px" viewBox="0 0 1229 1229" version="1.1" xmlns="http://www.w3.org/2000/svg" xmlns:xlink="http://www.w3.org/1999/xlink">
    <title>ordering</title>
    <g id="ordering" stroke="none" stroke-width="1" fill="none" fill-rule="evenodd">
        <path id="Line" d="M891.874829,576.289567 L898.29782,583.954109 L894.465549,587.165604 L385.345,1013.814 L399.476543,1030.67678 L340.745946,1044.66667 L364.792394,989.288256 L378.923,1006.15 L888.042559,579.501063 L891.874829,576.289567 Z" fill="#000000" fill-rule="nonzero"></path>
        <path id="Line-Copy" d="M490.310307,105.275484 L493.552571,109.081759 L860.043,539.326 L876.791137,525.059989 L891.253704,583.675978 L835.683372,560.076438 L852.43,545.81 L485.940022,115.566286 L482.697758,111.760012 L490.310307,105.275484 Z" fill="#000000" fill-rule="nonzero"></path>
        <path id="Line-Copy-2" d="M1057.92776,773.659142 L1066.93448,778.004136 L1064.76198,782.507497 L960.707,998.201 L980.522494,1007.76019 L932.741379,1044.665 L931.886199,984.297222 L951.7,993.856 L1055.75526,778.162503 L1057.92776,773.659142 Z" fill="#000000" fill-rule="nonzero"></path>
        <path id="Line-Copy-3" d="M1065.5,221.322581 L1065.5,333.677 L1087.5,333.677419 L1060.5,387.677419 L1033.5,333.677419 L1055.5,333.677 L1055.5,221.322581 L1065.5,221.322581 Z" fill="#000000" fill-rule="nonzero"></path>
        <rect id="Rectangle-Copy-21" fill="#000000" x="150" y="0" width="339" height="226"></rect>
        <rect id="Rectangle-Copy-22" fill="#000000" x="890" y="0" width="339" height="226"></rect>
        <rect id="Rectangle-Copy-24" fill="#000000" x="592" y="912" width="340" height="317"></rect>
        <rect id="Rectangle-Copy-25" fill="#000000" x="1" y="912" width="339" height="317"></rect>
        <rect id="Rectangle-Copy-23" fill="#000000" x="890" y="386" width="339" height="394"></rect>
    </g>
</svg>