<svg xmlns="http://www.w3.org/2000/svg" viewBox="0 0 24 30" fill="none" x="0px" y="0px"><path fill-rule="evenodd" clip-rule="evenodd" d="M10.5247 2.91811C11.2126 1.83972 12.7874 1.83971 13.4753 2.9181L13.5378 3.01599C13.5984 3.11094 13.715 3.15366 13.8225 3.12033L14.2454 2.98933C14.9449 2.77262 15.6974 3.01471 16.1473 3.57772C16.4728 3.985 16.9416 4.55893 17.4097 5.0888C17.8945 5.63758 18.326 6.07788 18.5879 6.26762C21.2814 8.2186 22.75 12.0394 22.75 15.3125C22.75 16.7573 22.4022 17.9542 21.7565 18.9232C21.1131 19.8889 20.2077 20.5776 19.1727 21.0652C17.1309 22.027 14.4877 22.25 12 22.25C9.51229 22.25 6.86914 22.027 4.82732 21.0652C3.79233 20.5776 2.88695 19.8889 2.24346 18.9232C1.59782 17.9542 1.25 16.7573 1.25 15.3125C1.25 11.4048 3.31305 8.00214 5.86188 6.25626C6.10851 6.08733 6.45649 5.70935 6.8405 5.20554C7.20908 4.72197 7.5608 4.19023 7.81939 3.78059C8.24255 3.11021 9.07026 2.7774 9.85292 3.01985L10.1775 3.12038C10.285 3.1537 10.4016 3.11098 10.4622 3.01603L10.5247 2.91811ZM12.2108 3.72486C12.1125 3.5708 11.8875 3.5708 11.7892 3.72486L11.7268 3.82277C11.3028 4.48742 10.4867 4.78649 9.73361 4.55321L9.40907 4.45267C9.29967 4.41879 9.16314 4.46193 9.08781 4.58127C8.81754 5.00942 8.43952 5.58211 8.03347 6.11483C7.64286 6.62731 7.17132 7.17748 6.70955 7.49378C4.55644 8.9686 2.75 11.9147 2.75 15.3125C2.75 16.5083 3.0345 17.4052 3.49175 18.0914C3.95115 18.7809 4.61924 19.309 5.46656 19.7082C7.18936 20.5198 9.54621 20.75 12 20.75C14.4538 20.75 16.8106 20.5198 18.5334 19.7082C19.3808 19.309 20.0488 18.7809 20.5083 18.0914C20.9655 17.4052 21.25 16.5083 21.25 15.3125C21.25 12.38 19.9108 9.07798 17.708 7.48242C17.293 7.18184 16.7602 6.61927 16.2855 6.08192C15.7941 5.52566 15.308 4.93022 14.9755 4.51414C14.9035 4.42402 14.7883 4.39147 14.6893 4.42216L14.2664 4.55315C13.5133 4.78645 12.6972 4.48739 12.2732 3.82274L12.2108 3.72486Z" fill="black"/><path fill-rule="evenodd" clip-rule="evenodd" d="M12 5.74994C12.4142 5.74994 12.75 6.08573 12.75 6.49994V8.49994C12.75 8.91415 12.4142 9.24994 12 9.24994C11.5858 9.24994 11.25 8.91415 11.25 8.49994V6.49994C11.25 6.08573 11.5858 5.74994 12 5.74994Z" fill="black"/><path fill-rule="evenodd" clip-rule="evenodd" d="M15 6.74994C15.4142 6.74994 15.75 7.08573 15.75 7.49994V9.49994C15.75 9.91415 15.4142 10.2499 15 10.2499C14.5858 10.2499 14.25 9.91415 14.25 9.49994V7.49994C14.25 7.08573 14.5858 6.74994 15 6.74994Z" fill="black"/><path fill-rule="evenodd" clip-rule="evenodd" d="M9 6.74994C9.41421 6.74994 9.75 7.08573 9.75 7.49994V9.49994C9.75 9.91415 9.41421 10.2499 9 10.2499C8.58579 10.2499 8.25 9.91415 8.25 9.49994V7.49994C8.25 7.08573 8.58579 6.74994 9 6.74994Z" fill="black"/><text x="0" y="39" fill="#000000" font-size="5px" font-weight="bold" font-family="'Helvetica Neue', Helvetica, Arial-Unicode, Arial, Sans-serif">Created by Reza Nur</text><text x="0" y="44" fill="#000000" font-size="5px" font-weight="bold" font-family="'Helvetica Neue', Helvetica, Arial-Unicode, Arial, Sans-serif">from the Noun Project</text></svg>